<?xml version="1.0" encoding="UTF-8" standalone="no"?>
<svg
   xmlns:dc="http://purl.org/dc/elements/1.1/"
   xmlns:cc="http://creativecommons.org/ns#"
   xmlns:rdf="http://www.w3.org/1999/02/22-rdf-syntax-ns#"
   xmlns:svg="http://www.w3.org/2000/svg"
   xmlns="http://www.w3.org/2000/svg"
   version="1.1"
   id="svg2"
   viewBox="0 0 216.4144 232.00976"
   height="65.47831mm"
   width="61.076954mm">
  <metadata
     id="metadata12">
    <rdf:RDF>
      <cc:Work
         rdf:about="">
        <dc:format>image/svg+xml</dc:format>
        <dc:type
           rdf:resource="http://purl.org/dc/dcmitype/StillImage" />
        <dc:title></dc:title>
      </cc:Work>
    </rdf:RDF>
  </metadata>
  <defs
     id="defs10" />
  <path
     style="fill:#2b90d9"
     id="path4"
     d="m 200.06743,135.86337 c -2.82076,14.08024 -25.26375,29.48968 -51.03955,32.47607 -13.44097,1.55611 -26.67468,2.9864 -40.7862,2.35836 -23.078075,-1.02593 -41.288276,-5.34475 -41.288276,-5.34475 0,2.17984 0.138544,4.25537 0.415631,6.19647 3.000305,22.09844 22.583753,23.42227 41.134215,24.03955 18.72337,0.62158 35.39518,-4.47905 35.39518,-4.47905 l 0.7692,16.42354 c 0,0 -13.09627,6.82343 -36.42595,8.07842 -12.864624,0.68611 -28.838173,-0.31401 -47.442947,-5.09203 C 20.448118,200.15738 13.508735,158.42423 12.446935,116.07919 12.123297,103.50666 12.3228,91.65142 12.3228,81.736209 c 0,-43.300004 29.239398,-55.991904 29.239398,-55.991904 14.743281,-6.569634 40.041385,-9.332343 66.341442,-9.540971 l 0.64616,0 c 26.30006,0.208628 51.61479,2.971337 66.35696,9.540971 0,0 29.23829,12.6919 29.23829,55.991904 0,0 0.36686,31.946981 -4.07762,54.127161" />
  <path
     style="fill:#ffffff"
     id="path6"
     d="m 169.6565,85.095336 0,52.429094 -21.40779,0 0,-50.888042 c 0,-10.72714 -4.65175,-16.171902 -13.95635,-16.171902 -10.28771,0 -15.44376,6.458867 -15.44376,19.230346 l 0,27.853998 -21.281443,0 0,-27.853998 c 0,-12.771479 -5.157155,-19.230346 -15.444866,-19.230346 -9.304604,0 -13.956352,5.444762 -13.956352,16.171902 l 0,50.888042 -21.407793,0 0,-52.429094 c 0,-10.71531 2.811886,-19.230347 8.460041,-25.530054 5.824383,-6.299708 13.452052,-9.529141 22.920692,-9.529141 10.954938,0 19.250942,4.085454 24.736171,12.257437 l 5.33227,8.673121 5.33339,-8.673121 c 5.48412,-8.171983 13.78012,-12.257437 24.73617,-12.257437 9.46753,0 17.0952,3.229433 22.92069,9.529141 5.64705,6.299707 8.45893,14.814744 8.45893,25.530054" />
</svg>
